# Blender 3.6.0
# www.blender.org
mtllib Параллелепипед.mtl
o Cube
v -0.455593 -0.075302 0.172098
v -0.370972 0.296793 0.130948
v 0.101558 -0.265556 -0.402516
v 0.186179 0.106539 -0.443667
v -0.186179 -0.106539 0.443667
v -0.101558 0.265556 0.402516
v 0.370972 -0.296793 -0.130948
v 0.455593 0.075302 -0.172098
vn -0.2205 -0.9695 0.1072
vn 0.6772 -0.2313 -0.6985
vn 0.7019 -0.0814 0.7076
vn 0.2205 0.9695 -0.1072
vn -0.7019 0.0814 -0.7076
vn -0.6772 0.2313 0.6985
vt 0.875000 0.500000
vt 0.625000 0.750000
vt 0.625000 0.500000
vt 0.375000 1.000000
vt 0.375000 0.750000
vt 0.625000 0.000000
vt 0.375000 0.250000
vt 0.375000 0.000000
vt 0.375000 0.500000
vt 0.125000 0.750000
vt 0.125000 0.500000
vt 0.625000 0.250000
vt 0.875000 0.750000
vt 0.625000 1.000000
s 0
usemtl Material
f 5/1/1 1/3/1 3/2/1
f 3/2/2 4/5/2 8/4/2
f 7/6/3 8/8/3 6/7/3
f 2/9/4 6/11/4 8/10/4
f 1/3/5 2/9/5 4/5/5
f 5/12/6 6/7/6 2/9/6
f 5/1/1 3/2/1 7/13/1
f 3/2/2 8/4/2 7/14/2
f 7/6/3 6/7/3 5/12/3
f 2/9/4 8/10/4 4/5/4
f 1/3/5 4/5/5 3/2/5
f 5/12/6 2/9/6 1/3/6
